<svg xmlns="http://www.w3.org/2000/svg" viewBox="0 0 2048 2048" width="2048" height="2048" shape-rendering="geometricPrecision">
  <title>Tatweer Logistics Company Logo</title>
  <g fill-rule="evenodd">
    <path d="M 621 1271 L 622 1274 L 626 1276 L 630 1275 L 627 1275 Z M 1071 1270 L 1073 1276 L 1079 1282 L 1082 1282 L 1082 1284 L 1087 1284 L 1087 1286 L 1104 1286 L 1105 1284 L 1109 1284 L 1114 1279 L 1114 1274 L 1111 1273 L 1109 1278 L 1101 1282 L 1088 1282 L 1079 1278 Z M 1325 1282 L 1328 1286 L 1331 1286 L 1339 1273 L 1357 1272 L 1356 1270 L 1340 1271 L 1337 1269 L 1332 1279 Z M 813 1265 L 811 1264 L 810 1276 L 802 1282 L 783 1282 L 775 1275 L 776 1282 L 785 1286 L 802 1286 L 803 1284 L 808 1284 L 814 1277 Z M 720 1279 L 719 1264 L 717 1265 L 716 1277 L 711 1282 L 702 1283 L 684 1280 L 677 1274 L 675 1268 L 673 1267 L 675 1275 L 682 1282 L 689 1284 L 690 1286 L 710 1286 L 711 1284 L 715 1284 Z M 1022 1269 L 1020 1268 L 1020 1265 L 1016 1263 L 1019 1268 L 1017 1276 L 1006 1282 L 989 1282 L 983 1278 L 983 1272 L 981 1272 L 982 1282 L 990 1284 L 991 1286 L 1009 1286 L 1010 1284 L 1014 1284 L 1018 1281 L 1020 1274 L 1022 1273 Z M 1720 1259 L 1535 1260 L 1536 1268 L 1716 1268 Z M 1301 1258 L 1299 1257 L 1295 1260 L 1297 1261 Z M 920 1256 L 919 1267 L 921 1268 L 921 1273 L 932 1284 L 936 1284 L 937 1286 L 952 1286 L 953 1284 L 959 1284 L 964 1278 L 964 1274 L 961 1273 L 959 1279 L 952 1282 L 938 1282 L 930 1280 L 923 1270 Z M 605 1264 L 607 1263 L 606 1256 Z M 526 1264 L 526 1260 L 523 1255 L 520 1260 L 428 1260 L 427 1262 L 428 1268 L 524 1268 L 524 1265 Z M 1069 1268 L 1071 1267 L 1070 1253 Z M 982 1248 L 981 1256 L 984 1260 L 996 1266 L 1001 1266 L 1008 1269 L 1010 1272 L 1011 1268 L 1009 1266 L 986 1259 L 982 1254 Z M 1347 1247 L 1338 1267 L 1346 1264 L 1353 1265 L 1353 1259 Z M 1348 1255 L 1351 1258 L 1351 1262 L 1349 1264 L 1343 1261 Z M 924 1247 L 921 1250 L 922 1255 Z M 1136 1246 L 1131 1252 L 1131 1271 L 1133 1274 L 1135 1272 L 1132 1263 L 1132 1252 Z M 1409 1245 L 1407 1247 L 1423 1262 Z M 1279 1245 L 1279 1265 L 1284 1261 L 1282 1260 L 1283 1248 L 1296 1248 L 1300 1251 L 1302 1256 L 1302 1251 L 1296 1245 Z M 1166 1247 L 1160 1244 L 1150 1244 L 1145 1246 L 1141 1250 L 1139 1256 L 1139 1263 L 1142 1271 L 1148 1273 L 1142 1266 L 1142 1256 L 1149 1248 L 1164 1249 L 1169 1254 L 1172 1263 L 1172 1256 Z M 991 1251 L 992 1253 L 996 1253 L 993 1248 L 1008 1248 L 1009 1250 L 1015 1250 L 1018 1248 L 1017 1244 L 1014 1248 L 1011 1248 L 1005 1244 L 996 1244 L 992 1247 Z M 962 1245 L 958 1249 L 951 1245 L 941 1244 L 932 1249 L 928 1258 L 928 1263 L 930 1265 L 929 1268 L 932 1273 L 938 1276 L 950 1276 L 951 1274 L 954 1274 L 952 1273 L 950 1275 L 938 1276 L 932 1268 L 932 1255 L 940 1248 L 951 1248 L 956 1252 L 961 1252 L 964 1249 Z M 703 1245 L 694 1244 L 683 1251 L 681 1256 L 681 1264 L 686 1273 L 690 1274 L 684 1265 L 684 1257 L 687 1252 L 692 1249 L 705 1247 Z M 614 1257 L 614 1263 L 618 1268 L 618 1255 L 626 1248 L 640 1249 L 643 1251 L 646 1263 L 647 1254 L 643 1248 L 636 1244 L 625 1244 L 617 1251 Z M 811 1242 L 808 1246 L 797 1244 L 788 1245 L 785 1253 L 799 1258 L 790 1254 L 789 1248 L 803 1248 L 804 1250 L 812 1249 Z M 870 1241 L 865 1245 L 851 1246 L 849 1282 L 844 1280 L 843 1245 L 828 1244 L 828 1247 L 842 1249 L 842 1283 L 846 1283 L 849 1286 L 854 1284 L 855 1248 L 867 1248 L 870 1246 Z M 780 1241 L 777 1248 L 775 1248 L 775 1255 L 777 1256 L 778 1260 L 784 1264 L 787 1264 L 788 1266 L 800 1268 L 804 1272 L 804 1268 L 800 1265 L 798 1266 L 785 1262 L 779 1257 L 777 1249 Z M 1309 1243 L 1307 1244 L 1303 1239 L 1297 1240 L 1303 1241 L 1309 1248 L 1309 1258 L 1304 1266 L 1291 1269 L 1279 1269 L 1277 1281 L 1274 1283 L 1272 1281 L 1272 1269 L 1271 1283 L 1273 1286 L 1282 1285 L 1283 1272 L 1303 1270 L 1310 1265 L 1312 1261 L 1312 1248 L 1310 1247 Z M 1175 1243 L 1169 1239 L 1178 1251 L 1178 1267 L 1173 1275 L 1164 1282 L 1160 1283 L 1148 1282 L 1135 1276 L 1143 1284 L 1148 1284 L 1149 1286 L 1163 1286 L 1164 1284 L 1169 1284 L 1176 1278 L 1180 1272 L 1180 1268 L 1182 1267 L 1182 1255 L 1180 1254 L 1180 1250 Z M 1114 1244 L 1109 1239 L 1105 1240 L 1110 1243 L 1111 1246 L 1109 1248 L 1097 1244 L 1084 1247 L 1078 1255 L 1078 1266 L 1081 1270 L 1082 1267 L 1080 1266 L 1080 1261 L 1082 1260 L 1084 1251 L 1089 1249 L 1104 1249 L 1111 1252 L 1114 1249 Z M 645 1239 L 642 1240 L 651 1247 L 654 1253 L 654 1264 L 650 1273 L 639 1282 L 625 1282 L 617 1279 L 607 1267 L 609 1275 L 619 1284 L 625 1284 L 626 1286 L 640 1286 L 641 1284 L 652 1279 L 656 1273 L 656 1268 L 658 1267 L 658 1255 L 656 1254 L 654 1246 Z M 1458 1237 L 1455 1241 L 1457 1245 L 1462 1249 L 1472 1264 L 1474 1284 L 1484 1286 L 1486 1284 L 1487 1265 L 1498 1249 L 1502 1246 L 1502 1242 L 1494 1249 L 1483 1263 L 1481 1282 L 1475 1281 L 1475 1264 L 1458 1241 L 1460 1239 L 1467 1239 L 1480 1258 L 1478 1251 L 1467 1237 Z M 1391 1238 L 1391 1284 L 1396 1284 L 1398 1286 L 1399 1284 L 1402 1284 L 1405 1259 L 1430 1286 L 1436 1286 L 1438 1284 L 1437 1237 L 1427 1238 L 1428 1268 L 1428 1241 L 1433 1239 L 1436 1243 L 1435 1272 L 1433 1282 L 1430 1282 L 1424 1277 L 1399 1249 L 1399 1277 L 1395 1283 L 1392 1279 L 1392 1242 L 1396 1238 L 1400 1238 L 1405 1245 L 1406 1242 L 1401 1237 Z M 1345 1238 L 1352 1240 L 1353 1245 L 1360 1257 L 1360 1262 L 1369 1278 L 1370 1282 L 1361 1283 L 1364 1286 L 1374 1285 L 1374 1280 L 1363 1261 L 1358 1247 L 1356 1246 L 1356 1242 L 1352 1237 Z M 1294 1237 L 1271 1239 L 1272 1265 L 1273 1239 L 1289 1239 Z M 1247 1237 L 1240 1238 L 1248 1239 L 1246 1248 L 1246 1281 L 1242 1284 L 1240 1282 L 1240 1251 L 1227 1268 L 1230 1271 L 1232 1265 L 1238 1259 L 1240 1262 L 1239 1279 L 1241 1286 L 1248 1286 L 1250 1284 L 1250 1239 Z M 1201 1237 L 1199 1239 L 1199 1284 L 1202 1283 L 1206 1286 L 1210 1283 L 1211 1259 L 1217 1265 L 1221 1273 L 1225 1274 L 1225 1272 L 1221 1269 L 1220 1264 L 1215 1261 L 1214 1257 L 1210 1255 L 1207 1249 L 1207 1273 L 1205 1282 L 1201 1282 L 1201 1239 L 1210 1240 L 1214 1248 L 1226 1260 L 1224 1255 L 1218 1249 L 1217 1245 L 1213 1245 L 1210 1237 Z M 889 1238 L 898 1240 L 898 1277 L 895 1282 L 887 1283 L 900 1283 L 900 1239 L 899 1237 Z M 830 1238 L 854 1239 L 867 1237 Z M 741 1238 L 741 1284 L 745 1283 L 747 1286 L 751 1286 L 753 1284 L 754 1240 L 751 1237 Z M 744 1239 L 750 1239 L 752 1241 L 750 1246 L 750 1280 L 748 1282 L 744 1282 L 742 1280 L 742 1241 Z M 704 1237 L 706 1240 L 712 1242 L 716 1247 L 708 1250 L 716 1252 L 718 1249 L 717 1243 Z M 560 1237 L 557 1240 L 557 1283 L 560 1286 L 593 1286 L 594 1276 L 592 1273 L 593 1279 L 591 1281 L 560 1281 L 560 1239 L 565 1239 L 567 1241 L 565 1271 L 566 1276 L 570 1276 L 568 1246 L 570 1245 L 570 1242 L 567 1241 L 568 1237 Z M 1387 1108 L 1384 1107 L 1378 1115 Z M 1360 1052 L 1355 1057 L 1356 1081 L 1354 1083 L 1349 1078 L 1335 1072 L 1267 1071 L 1267 1130 L 1343 1130 L 1362 1125 L 1375 1118 L 1376 1116 L 1374 1115 L 1364 1122 L 1355 1126 L 1349 1125 L 1348 1127 L 1271 1127 L 1271 1079 L 1273 1077 L 1326 1077 L 1328 1080 L 1340 1079 L 1342 1082 L 1345 1082 L 1352 1087 L 1356 1092 L 1360 1091 Z M 1558 1050 L 1556 1050 L 1553 1056 L 1553 1081 L 1550 1083 L 1543 1076 L 1532 1072 L 1464 1071 L 1465 1130 L 1542 1130 L 1558 1126 L 1577 1114 L 1580 1109 L 1564 1121 L 1550 1126 L 1470 1126 L 1472 1120 L 1470 1119 L 1470 1115 L 1472 1113 L 1470 1112 L 1470 1103 L 1472 1102 L 1472 1100 L 1470 1100 L 1470 1081 L 1472 1078 L 1528 1077 L 1531 1080 L 1546 1085 L 1555 1092 L 1558 1091 Z M 1553 1050 L 1546 1051 L 1542 1054 L 1547 1054 Z M 1007 1022 L 1005 1022 L 1005 1026 L 1003 1027 L 1004 1030 L 1001 1032 L 1002 1034 L 997 1040 L 998 1042 L 995 1044 L 995 1050 L 993 1050 L 993 1054 L 989 1057 L 989 1062 L 987 1062 L 987 1065 L 983 1070 L 983 1076 L 981 1076 L 982 1078 L 979 1080 L 977 1084 L 978 1086 L 973 1092 L 974 1097 L 974 1094 L 1004 1032 Z M 555 1020 L 531 1077 L 527 1083 L 588 1082 L 557 1019 Z M 560 1032 L 564 1040 L 563 1043 L 570 1053 L 569 1055 L 571 1056 L 573 1063 L 576 1065 L 575 1066 L 584 1079 L 583 1082 L 537 1082 L 536 1080 L 544 1068 L 544 1063 L 546 1063 L 548 1054 L 556 1041 L 555 1037 Z M 538 1017 L 537 1020 L 535 1020 L 535 1024 L 533 1024 L 533 1028 L 531 1028 L 531 1032 L 529 1032 L 529 1035 L 525 1040 L 526 1042 L 523 1044 L 524 1046 L 513 1067 L 511 1068 L 512 1070 L 507 1076 L 507 1080 L 505 1080 L 505 1084 L 503 1084 L 503 1088 L 501 1088 L 502 1090 L 499 1092 L 500 1094 L 495 1100 L 489 1114 L 487 1115 L 487 1118 L 479 1130 L 479 1133 L 472 1140 L 480 1134 L 510 1076 L 513 1067 L 526 1045 L 528 1037 Z M 698 1009 L 687 1017 L 684 1021 L 684 1025 L 680 1027 L 685 1030 L 693 1021 L 695 1022 L 700 1017 L 705 1018 L 707 1015 L 719 1016 L 721 1013 L 742 1013 L 742 1136 L 744 1110 L 744 1007 L 709 1007 Z M 1417 999 L 1423 1005 L 1423 1119 L 1425 1120 L 1422 1139 L 1415 1149 L 1416 1152 L 1419 1154 L 1582 1153 L 1582 1150 L 1584 1149 L 1583 1143 L 1586 1141 L 1588 1123 L 1590 1122 L 1589 1107 L 1586 1109 L 1578 1143 L 1575 1147 L 1555 1145 L 1434 1145 L 1420 1149 L 1418 1146 L 1425 1138 L 1427 1132 L 1427 1006 L 1420 998 Z M 1220 998 L 1219 1001 L 1226 1009 L 1226 1134 L 1217 1144 L 1218 1148 L 1215 1151 L 1218 1151 L 1220 1154 L 1382 1153 L 1382 1150 L 1384 1149 L 1384 1142 L 1386 1141 L 1385 1135 L 1388 1132 L 1388 1126 L 1390 1125 L 1390 1114 L 1392 1113 L 1392 1110 L 1389 1111 L 1385 1118 L 1384 1125 L 1380 1131 L 1377 1145 L 1375 1147 L 1242 1145 L 1220 1149 L 1218 1145 L 1227 1136 L 1227 1005 L 1226 1002 Z M 1001 999 L 1008 1007 L 1007 1009 L 1010 1010 L 1010 1013 L 1011 1011 L 1008 1003 L 1005 999 Z M 1188 998 L 1183 996 L 1176 999 L 1167 1008 L 1100 1143 L 1094 1146 L 1071 1147 L 1067 1144 L 1056 1114 L 1020 1032 L 1004 1075 L 973 1140 L 973 1143 L 967 1146 L 947 1146 L 942 1138 L 891 1015 L 882 1002 L 874 999 L 880 1005 L 879 1007 L 886 1013 L 885 1015 L 887 1016 L 889 1023 L 892 1025 L 891 1027 L 893 1031 L 896 1033 L 895 1036 L 898 1038 L 899 1045 L 902 1047 L 901 1050 L 904 1052 L 905 1059 L 909 1069 L 911 1070 L 911 1075 L 916 1081 L 915 1084 L 918 1087 L 917 1089 L 920 1091 L 919 1093 L 921 1094 L 921 1099 L 924 1101 L 923 1103 L 928 1109 L 929 1116 L 935 1127 L 935 1131 L 941 1140 L 941 1145 L 948 1154 L 981 1154 L 984 1150 L 984 1141 L 986 1139 L 986 1135 L 988 1134 L 987 1131 L 992 1125 L 991 1121 L 994 1119 L 996 1115 L 995 1113 L 998 1111 L 998 1107 L 1000 1105 L 999 1103 L 1002 1101 L 1002 1097 L 1004 1095 L 1003 1093 L 1008 1087 L 1008 1083 L 1012 1077 L 1011 1074 L 1014 1071 L 1013 1069 L 1016 1067 L 1015 1065 L 1018 1063 L 1018 1059 L 1020 1058 L 1020 1052 L 1024 1048 L 1027 1059 L 1030 1061 L 1029 1064 L 1033 1069 L 1033 1073 L 1036 1074 L 1035 1077 L 1038 1080 L 1039 1087 L 1044 1093 L 1043 1096 L 1048 1103 L 1047 1105 L 1049 1107 L 1049 1111 L 1054 1117 L 1053 1120 L 1058 1125 L 1057 1129 L 1060 1131 L 1059 1134 L 1061 1135 L 1061 1140 L 1063 1141 L 1063 1145 L 1068 1154 L 1106 1154 L 1110 1144 L 1112 1143 L 1116 1130 L 1120 1125 L 1122 1117 L 1128 1108 L 1127 1105 L 1140 1083 L 1144 1072 L 1146 1071 L 1145 1069 L 1148 1067 L 1147 1065 L 1152 1059 L 1152 1055 L 1154 1055 L 1164 1031 L 1170 1023 L 1173 1015 L 1180 1009 L 1183 1002 Z M 931 998 L 927 1009 L 948 1060 L 970 1104 L 972 1098 L 970 1099 L 968 1097 L 968 1092 L 962 1084 L 960 1076 L 957 1074 L 956 1066 L 953 1064 L 954 1062 L 949 1056 L 950 1052 L 945 1046 L 946 1044 L 941 1038 L 942 1036 L 935 1024 L 936 1020 L 934 1019 L 931 1007 L 935 1000 L 938 999 L 938 996 Z M 858 997 L 855 996 L 853 998 L 852 1006 L 854 1009 L 854 1020 L 852 1022 L 846 1014 L 833 1009 L 817 1007 L 782 1008 L 782 1132 L 789 1146 L 759 1145 L 748 1146 L 741 1149 L 736 1149 L 734 1146 L 733 1151 L 735 1154 L 795 1154 L 797 1150 L 795 1148 L 796 1146 L 791 1143 L 788 1136 L 789 1014 L 817 1013 L 821 1016 L 833 1015 L 856 1030 L 860 1027 L 860 1018 L 858 1017 L 857 1013 Z M 675 1150 L 668 1138 L 663 1134 L 656 1120 L 651 1116 L 652 1114 L 650 1113 L 650 1110 L 646 1106 L 642 1096 L 637 1092 L 638 1090 L 633 1086 L 634 1084 L 627 1076 L 628 1074 L 623 1070 L 624 1068 L 622 1067 L 620 1060 L 617 1058 L 608 1040 L 603 1036 L 604 1034 L 595 1022 L 596 1020 L 588 1009 L 586 1002 L 581 999 L 582 996 L 580 998 L 592 1021 L 597 1027 L 663 1138 L 670 1144 L 669 1147 L 661 1145 L 620 1146 L 618 1144 L 616 1134 L 594 1094 L 525 1094 L 521 1098 L 507 1131 L 507 1138 L 512 1143 L 512 1148 L 506 1145 L 475 1146 L 468 1149 L 467 1154 L 519 1154 L 522 1150 L 515 1144 L 514 1134 L 518 1129 L 518 1125 L 529 1102 L 592 1100 L 597 1105 L 601 1115 L 604 1117 L 603 1119 L 607 1127 L 610 1129 L 615 1149 L 619 1151 L 620 1154 L 675 1154 Z M 1382 999 L 1379 997 L 1379 994 L 1377 995 L 1379 1025 L 1358 1012 L 1346 1008 L 1266 1007 L 1267 1060 L 1272 1058 L 1334 1058 L 1274 1058 L 1271 1056 L 1271 1015 L 1274 1013 L 1330 1014 L 1332 1016 L 1332 1014 L 1336 1014 L 1336 1016 L 1349 1015 L 1351 1018 L 1358 1018 L 1358 1020 L 1362 1019 L 1364 1022 L 1370 1026 L 1373 1026 L 1374 1028 L 1376 1027 L 1381 1032 L 1384 1030 L 1384 1010 L 1382 1009 Z M 1057 994 L 1050 1007 L 1052 1018 L 1089 1098 L 1095 1107 L 1138 1015 L 1139 1004 L 1131 996 L 1131 999 L 1134 1001 L 1138 1012 L 1135 1014 L 1135 1020 L 1133 1020 L 1134 1022 L 1131 1024 L 1132 1026 L 1127 1032 L 1127 1036 L 1125 1036 L 1125 1042 L 1123 1042 L 1123 1045 L 1117 1054 L 1115 1064 L 1113 1064 L 1114 1066 L 1111 1068 L 1109 1075 L 1107 1076 L 1107 1080 L 1105 1081 L 1105 1086 L 1101 1088 L 1102 1092 L 1099 1094 L 1099 1098 L 1097 1098 L 1095 1103 L 1092 1094 L 1088 1090 L 1088 1086 L 1083 1080 L 1084 1078 L 1077 1068 L 1078 1066 L 1076 1064 L 1076 1060 L 1074 1059 L 1070 1047 L 1065 1040 L 1064 1034 L 1062 1033 L 1058 1022 L 1055 1020 L 1054 1010 L 1058 1006 L 1057 1002 L 1060 1000 Z M 1616 993 L 1613 999 L 1618 1000 L 1622 1007 L 1621 1136 L 1617 1143 L 1613 1146 L 1613 1151 L 1616 1152 L 1616 1154 L 1675 1154 L 1679 1151 L 1678 1146 L 1671 1136 L 1670 1072 L 1668 1066 L 1669 1014 L 1714 1014 L 1714 1016 L 1729 1015 L 1734 1020 L 1738 1021 L 1744 1029 L 1745 1046 L 1739 1054 L 1729 1061 L 1713 1063 L 1710 1066 L 1680 1065 L 1680 1067 L 1718 1066 L 1731 1062 L 1743 1053 L 1748 1043 L 1748 1032 L 1743 1021 L 1746 1020 L 1746 1018 L 1737 1012 L 1724 1008 L 1665 1006 L 1662 1009 L 1662 1121 L 1664 1133 L 1672 1142 L 1672 1146 L 1630 1145 L 1618 1149 L 1616 1144 L 1623 1136 L 1624 1127 L 1624 1003 L 1619 998 L 1621 994 L 1751 995 L 1764 997 L 1775 1003 L 1786 1017 L 1787 1040 L 1781 1056 L 1776 1062 L 1761 1072 L 1745 1078 L 1736 1079 L 1772 1119 L 1787 1133 L 1799 1148 L 1788 1144 L 1756 1144 L 1746 1146 L 1685 1075 L 1674 1071 L 1673 1073 L 1704 1103 L 1703 1105 L 1711 1113 L 1711 1115 L 1728 1131 L 1731 1137 L 1736 1141 L 1737 1145 L 1746 1154 L 1804 1154 L 1808 1151 L 1802 1143 L 1769 1112 L 1768 1108 L 1755 1096 L 1749 1087 L 1764 1082 L 1777 1074 L 1786 1065 L 1788 1059 L 1790 1058 L 1790 1054 L 1792 1053 L 1792 1047 L 1794 1046 L 1794 1029 L 1792 1028 L 1792 1020 L 1790 1019 L 1786 1009 L 1780 1003 L 1765 995 L 1754 995 L 1753 993 Z M 1422 994 L 1577 994 L 1579 996 L 1580 1022 L 1555 1009 L 1528 1007 L 1464 1008 L 1466 1060 L 1472 1058 L 1534 1058 L 1471 1056 L 1470 1015 L 1472 1013 L 1534 1013 L 1538 1016 L 1548 1015 L 1551 1018 L 1565 1020 L 1566 1022 L 1568 1021 L 1581 1032 L 1585 1032 L 1586 1012 L 1584 1011 L 1584 1004 L 1582 1003 L 1581 995 L 1579 993 Z M 1224 994 L 1371 994 Z M 501 963 L 500 969 L 493 981 L 485 1011 L 474 1000 L 467 998 L 395 998 L 396 1256 L 393 1259 L 350 1200 L 350 997 L 287 999 L 269 1004 L 262 1010 L 261 1015 L 268 1017 L 271 1015 L 274 1016 L 275 1014 L 293 1007 L 301 1008 L 304 1005 L 338 1006 L 346 1004 L 348 1006 L 347 1204 L 356 1213 L 355 1215 L 360 1219 L 373 1241 L 378 1245 L 377 1247 L 384 1253 L 387 1261 L 395 1271 L 402 1271 L 401 1006 L 403 1004 L 415 1004 L 418 1006 L 419 1004 L 430 1006 L 455 1005 L 459 1006 L 460 1008 L 465 1006 L 478 1010 L 484 1018 L 490 1017 L 492 1015 L 491 1008 L 494 1006 L 493 1002 L 495 995 L 498 993 L 497 988 L 500 986 L 499 982 L 502 980 L 501 974 L 504 971 L 504 967 Z M 275 964 L 488 964 Z M 254 890 L 248 889 L 246 891 L 240 891 L 239 893 L 233 893 L 232 895 L 198 905 L 184 907 L 183 909 L 170 913 L 164 913 L 163 915 L 139 922 L 144 922 L 145 920 L 151 920 L 173 912 L 178 912 L 222 898 Z M 268 885 L 262 885 L 261 887 L 255 888 L 261 888 Z M 500 874 L 485 873 L 484 876 L 471 875 L 470 878 L 456 877 L 455 880 L 443 879 L 441 882 L 431 881 L 430 884 L 417 883 L 416 885 L 404 885 L 402 888 L 394 887 L 393 889 L 381 889 L 394 890 L 434 882 L 444 882 L 448 880 Z M 546 868 L 531 867 L 530 870 L 514 869 L 513 871 L 502 872 L 516 872 L 536 868 Z M 597 862 L 580 861 L 578 864 L 567 863 L 566 866 L 550 866 L 566 866 L 580 864 L 583 862 Z M 599 859 L 600 861 L 612 860 Z M 615 858 L 633 858 Z M 656 853 L 656 855 L 670 854 Z M 736 846 L 772 844 L 752 843 L 751 846 Z M 1555 844 L 1556 914 L 1645 914 L 1646 916 L 1848 916 L 1849 914 L 1852 914 L 1852 905 L 1850 900 L 1846 897 L 1841 897 L 1840 895 L 1832 895 L 1831 893 L 1822 893 L 1820 891 L 1811 891 L 1810 889 L 1777 885 L 1776 883 L 1755 881 L 1754 879 L 1741 879 L 1741 877 L 1691 869 L 1690 867 L 1670 865 L 1670 863 L 1661 863 L 1659 861 L 1651 861 L 1650 859 L 1622 855 L 1621 853 L 1593 849 L 1592 847 L 1575 845 L 1574 843 L 1564 843 L 1563 841 L 1558 842 L 1725 878 L 1768 884 L 1792 890 L 1832 896 L 1843 899 L 1846 901 L 1846 904 L 1832 903 L 1763 890 L 1737 888 L 1689 880 L 1673 880 L 1629 874 L 1614 874 L 1571 867 L 1561 868 L 1558 863 L 1558 848 Z M 1624 880 L 1634 879 L 1648 883 L 1640 884 L 1626 882 Z M 1558 874 L 1562 872 L 1566 874 L 1628 884 L 1719 894 L 1725 896 L 1780 902 L 1806 903 L 1810 905 L 1827 905 L 1838 910 L 1825 908 L 1788 909 L 1733 904 L 1728 905 L 1740 908 L 1567 904 L 1560 907 L 1558 905 Z M 778 842 L 799 842 Z M 800 839 L 801 841 L 823 840 Z M 825 838 L 844 838 Z M 1107 820 L 1083 819 L 1082 821 L 1047 821 L 1045 824 L 1017 823 L 1014 826 L 988 825 L 985 828 L 956 827 L 953 830 L 923 829 L 921 832 L 900 832 L 959 830 L 997 826 Z M 1281 772 L 1281 830 L 1285 834 L 1292 833 L 1294 836 L 1303 835 L 1306 838 L 1333 840 L 1334 842 L 1343 841 L 1347 842 L 1348 844 L 1364 844 L 1365 846 L 1375 845 L 1377 848 L 1389 847 L 1392 850 L 1399 850 L 1400 852 L 1413 851 L 1416 854 L 1425 853 L 1428 856 L 1437 855 L 1440 858 L 1449 857 L 1452 860 L 1464 859 L 1465 863 L 1436 861 L 1434 859 L 1418 859 L 1417 857 L 1401 857 L 1400 855 L 1389 856 L 1385 853 L 1370 854 L 1368 852 L 1353 851 L 1352 849 L 1337 849 L 1335 847 L 1324 848 L 1321 845 L 1301 846 L 1299 843 L 1288 843 L 1289 845 L 1358 852 L 1362 854 L 1375 854 L 1379 856 L 1390 856 L 1395 858 L 1423 860 L 1429 862 L 1442 862 L 1462 866 L 1531 872 L 1536 874 L 1538 877 L 1535 880 L 1534 904 L 1293 902 L 1285 904 L 1284 846 L 1281 849 L 1281 909 L 1285 912 L 1354 911 L 1372 912 L 1372 914 L 1542 913 L 1542 843 L 1537 837 L 1511 831 L 1510 829 L 1479 823 L 1478 821 L 1464 819 L 1464 817 L 1452 815 L 1451 813 L 1444 813 L 1436 811 L 1435 809 L 1430 810 L 1422 805 L 1415 805 L 1414 803 L 1409 804 L 1407 801 L 1401 802 L 1388 797 L 1387 795 L 1366 791 L 1365 789 L 1358 789 L 1357 787 L 1353 788 L 1340 783 L 1339 781 L 1327 779 L 1326 777 L 1320 777 L 1318 775 L 1315 776 L 1313 773 L 1307 774 L 1356 790 L 1431 810 L 1440 814 L 1446 814 L 1498 830 L 1535 838 L 1541 842 L 1537 845 L 1537 862 L 1534 865 L 1530 863 L 1502 860 L 1459 852 L 1450 852 L 1446 850 L 1308 828 L 1292 827 L 1285 830 L 1285 775 L 1284 772 Z M 1501 867 L 1502 865 L 1512 865 L 1515 867 L 1524 867 L 1536 872 L 1508 870 Z M 1483 865 L 1494 863 L 1498 866 L 1487 867 Z M 1469 862 L 1479 861 L 1483 864 Z M 1197 722 L 1197 895 L 1199 896 L 1202 912 L 1266 912 L 1266 744 L 1247 737 L 1246 735 L 1240 736 L 1255 742 L 1259 742 L 1263 747 L 1260 752 L 1261 899 L 1260 901 L 1210 902 L 1204 906 L 1202 904 L 1202 728 Z M 1205 722 L 1235 734 L 1239 733 L 1235 733 L 1234 731 L 1231 732 L 1229 729 L 1224 729 L 1223 727 L 1219 728 L 1213 723 L 1209 723 L 1207 721 Z M 1182 688 L 1179 687 L 1176 697 L 1177 899 L 1175 901 L 948 899 L 673 899 L 578 901 L 365 911 L 256 919 L 209 925 L 198 924 L 198 921 L 204 919 L 296 906 L 285 906 L 272 908 L 269 910 L 252 910 L 257 907 L 287 903 L 290 901 L 299 901 L 309 897 L 315 898 L 315 901 L 308 901 L 305 904 L 298 904 L 301 905 L 345 896 L 368 894 L 369 892 L 380 892 L 370 891 L 367 893 L 355 893 L 352 896 L 343 893 L 345 891 L 353 892 L 355 889 L 363 889 L 365 887 L 376 888 L 379 885 L 387 886 L 389 883 L 397 884 L 398 882 L 408 881 L 410 879 L 421 880 L 423 877 L 431 878 L 435 875 L 446 876 L 448 873 L 455 873 L 458 871 L 468 872 L 471 869 L 483 869 L 485 867 L 493 868 L 497 865 L 505 866 L 508 863 L 517 864 L 519 861 L 532 862 L 534 859 L 543 860 L 544 857 L 556 858 L 558 855 L 569 856 L 572 853 L 581 854 L 583 851 L 596 852 L 599 849 L 609 850 L 611 847 L 621 847 L 624 845 L 638 846 L 641 843 L 652 844 L 655 841 L 665 842 L 667 839 L 680 840 L 682 837 L 696 838 L 698 835 L 714 836 L 717 833 L 726 834 L 735 832 L 737 834 L 738 831 L 745 832 L 751 830 L 771 830 L 773 827 L 786 828 L 788 825 L 801 825 L 805 823 L 824 824 L 827 821 L 842 822 L 845 819 L 865 820 L 868 817 L 885 818 L 888 815 L 900 816 L 905 813 L 927 813 L 930 811 L 952 812 L 954 809 L 973 810 L 976 807 L 992 808 L 995 805 L 1016 806 L 1019 803 L 1039 804 L 1042 801 L 1061 802 L 1064 799 L 1082 800 L 1083 798 L 1089 797 L 1110 798 L 1109 809 L 1111 814 L 1110 819 L 1112 820 L 1114 788 L 773 819 L 596 841 L 416 869 L 296 892 L 278 894 L 214 909 L 158 925 L 127 931 L 132 934 L 142 935 L 153 933 L 182 934 L 183 932 L 187 931 L 215 932 L 216 930 L 223 929 L 248 930 L 251 927 L 276 928 L 277 926 L 283 925 L 314 926 L 318 923 L 349 924 L 352 921 L 383 922 L 385 919 L 414 920 L 416 917 L 453 918 L 454 916 L 459 915 L 488 916 L 489 914 L 494 913 L 543 914 L 543 912 L 546 911 L 599 912 L 599 910 L 607 909 L 1138 909 L 1181 912 Z M 317 896 L 319 895 L 327 899 Z M 328 895 L 330 893 L 341 895 L 339 897 Z" fill="#5b2f20"/>
    <path d="M 888 1284 L 892 1286 L 897 1286 L 900 1284 Z M 1533 1263 L 1535 1265 L 1535 1259 L 1709 1259 L 1716 1257 L 1720 1258 L 1718 1253 L 1709 1251 L 1545 1251 L 1534 1253 Z M 425 1266 L 427 1268 L 427 1260 L 521 1258 L 523 1254 L 526 1259 L 525 1253 L 508 1251 L 439 1251 L 430 1252 L 426 1255 Z M 750 1240 L 743 1241 L 743 1280 L 749 1280 Z M 560 1240 L 561 1281 L 592 1278 L 591 1273 L 565 1276 L 564 1264 L 566 1241 Z M 1394 1240 L 1393 1279 L 1395 1282 L 1397 1281 L 1398 1277 L 1397 1256 L 1399 1248 L 1424 1276 L 1430 1281 L 1433 1281 L 1435 1242 L 1433 1240 L 1429 1241 L 1430 1267 L 1428 1269 L 1426 1265 L 1426 1242 L 1425 1262 L 1422 1262 L 1417 1258 L 1407 1244 L 1405 1246 L 1400 1239 Z M 888 1238 L 889 1270 L 887 1282 L 895 1281 L 897 1277 L 897 1240 L 890 1240 Z M 1502 1238 L 1493 1239 L 1493 1237 L 1492 1241 L 1489 1242 L 1480 1254 L 1480 1259 L 1475 1254 L 1468 1241 L 1459 1241 L 1459 1243 L 1466 1249 L 1474 1260 L 1476 1265 L 1476 1281 L 1481 1281 L 1482 1263 L 1493 1249 L 1503 1242 L 1503 1244 L 1504 1241 Z M 1351 1240 L 1345 1239 L 1344 1237 L 1342 1243 L 1340 1243 L 1340 1247 L 1337 1248 L 1339 1251 L 1337 1252 L 1336 1257 L 1334 1257 L 1334 1262 L 1331 1263 L 1329 1267 L 1331 1268 L 1325 1275 L 1326 1278 L 1324 1278 L 1324 1285 L 1327 1285 L 1325 1281 L 1331 1279 L 1337 1268 L 1340 1270 L 1356 1269 L 1357 1273 L 1348 1273 L 1359 1274 L 1357 1277 L 1361 1282 L 1370 1281 L 1359 1262 L 1359 1257 L 1352 1245 Z M 1347 1246 L 1354 1259 L 1353 1266 L 1346 1265 L 1343 1267 L 1337 1267 Z M 1308 1242 L 1306 1241 L 1305 1244 L 1296 1240 L 1298 1238 L 1295 1237 L 1294 1239 L 1273 1240 L 1273 1265 L 1271 1265 L 1271 1272 L 1272 1268 L 1276 1281 L 1277 1270 L 1279 1268 L 1298 1267 L 1305 1264 L 1308 1258 L 1308 1248 L 1306 1244 Z M 1279 1244 L 1296 1244 L 1303 1251 L 1303 1256 L 1301 1256 L 1299 1261 L 1287 1261 L 1279 1266 Z M 1250 1238 L 1248 1237 L 1247 1239 L 1237 1240 L 1235 1243 L 1237 1245 L 1234 1249 L 1233 1247 L 1232 1252 L 1229 1253 L 1228 1258 L 1226 1258 L 1227 1260 L 1225 1261 L 1213 1248 L 1214 1245 L 1216 1245 L 1213 1241 L 1213 1246 L 1209 1240 L 1201 1240 L 1202 1282 L 1205 1281 L 1207 1248 L 1215 1257 L 1216 1261 L 1221 1264 L 1222 1269 L 1225 1271 L 1221 1274 L 1223 1276 L 1228 1273 L 1226 1271 L 1228 1264 L 1231 1263 L 1240 1250 L 1242 1283 L 1245 1281 L 1245 1248 L 1248 1238 Z M 1170 1240 L 1162 1237 L 1161 1239 L 1144 1241 L 1143 1239 L 1140 1243 L 1137 1243 L 1135 1245 L 1137 1246 L 1135 1251 L 1133 1252 L 1133 1263 L 1136 1273 L 1134 1275 L 1153 1282 L 1164 1281 L 1172 1275 L 1177 1267 L 1177 1251 Z M 1145 1245 L 1150 1243 L 1160 1243 L 1166 1246 L 1171 1252 L 1174 1262 L 1172 1264 L 1170 1262 L 1169 1268 L 1162 1276 L 1149 1276 L 1149 1273 L 1146 1276 L 1139 1268 L 1139 1252 Z M 1082 1239 L 1078 1245 L 1077 1243 L 1073 1247 L 1072 1252 L 1070 1252 L 1072 1256 L 1072 1267 L 1070 1270 L 1072 1269 L 1079 1277 L 1088 1281 L 1101 1281 L 1109 1277 L 1110 1273 L 1113 1273 L 1110 1270 L 1105 1272 L 1103 1275 L 1102 1273 L 1096 1275 L 1095 1277 L 1090 1277 L 1088 1273 L 1086 1276 L 1084 1274 L 1085 1272 L 1079 1269 L 1077 1266 L 1077 1255 L 1084 1246 L 1094 1243 L 1101 1244 L 1106 1247 L 1110 1245 L 1104 1240 L 1104 1237 L 1088 1237 Z M 992 1237 L 985 1241 L 981 1247 L 983 1248 L 984 1256 L 993 1261 L 1004 1263 L 1004 1265 L 1009 1265 L 1011 1270 L 1007 1275 L 996 1275 L 995 1277 L 991 1276 L 992 1274 L 985 1270 L 982 1271 L 984 1272 L 984 1278 L 989 1281 L 1010 1280 L 1016 1276 L 1018 1270 L 1016 1266 L 1017 1262 L 1019 1264 L 1009 1257 L 1004 1256 L 1000 1258 L 996 1256 L 999 1254 L 997 1253 L 996 1255 L 993 1255 L 990 1249 L 996 1243 L 1005 1243 L 1011 1247 L 1015 1246 L 1017 1243 L 1019 1245 L 1017 1241 L 1014 1242 L 1008 1240 L 1011 1238 L 1009 1237 Z M 958 1239 L 955 1241 L 952 1240 L 955 1238 L 952 1237 L 951 1239 L 935 1238 L 935 1241 L 931 1240 L 930 1243 L 925 1244 L 925 1249 L 922 1256 L 920 1254 L 924 1270 L 930 1279 L 938 1281 L 952 1281 L 959 1278 L 964 1273 L 958 1270 L 950 1277 L 937 1276 L 939 1274 L 935 1276 L 929 1270 L 929 1265 L 927 1263 L 928 1254 L 932 1248 L 941 1243 L 951 1244 L 958 1248 L 961 1245 L 964 1245 Z M 829 1237 L 826 1239 L 827 1248 L 841 1249 L 832 1249 L 827 1247 L 828 1243 L 843 1244 L 845 1246 L 844 1263 L 846 1281 L 849 1281 L 849 1247 L 853 1244 L 865 1244 L 870 1240 L 868 1237 L 867 1239 L 854 1240 L 830 1239 Z M 787 1237 L 779 1243 L 778 1253 L 785 1261 L 798 1265 L 800 1264 L 804 1267 L 804 1273 L 803 1271 L 803 1274 L 800 1277 L 799 1275 L 795 1277 L 782 1274 L 781 1271 L 780 1273 L 776 1272 L 775 1274 L 783 1281 L 802 1281 L 809 1276 L 810 1264 L 812 1264 L 812 1262 L 808 1259 L 807 1261 L 804 1257 L 796 1255 L 795 1258 L 785 1254 L 784 1250 L 785 1247 L 791 1243 L 808 1245 L 811 1241 L 812 1247 L 814 1246 L 814 1243 L 812 1241 L 805 1240 L 805 1237 L 804 1239 Z M 681 1242 L 675 1249 L 675 1254 L 672 1255 L 672 1267 L 674 1266 L 678 1274 L 684 1279 L 696 1282 L 711 1281 L 715 1277 L 715 1266 L 720 1264 L 720 1259 L 700 1259 L 700 1267 L 703 1268 L 708 1266 L 710 1267 L 709 1270 L 711 1272 L 706 1275 L 706 1277 L 687 1275 L 681 1267 L 680 1256 L 686 1247 L 694 1243 L 703 1244 L 707 1249 L 715 1246 L 709 1241 L 706 1241 L 703 1237 L 691 1237 Z M 619 1239 L 610 1251 L 608 1250 L 608 1255 L 606 1254 L 608 1258 L 606 1267 L 608 1266 L 612 1273 L 619 1279 L 625 1281 L 641 1280 L 649 1273 L 653 1264 L 653 1253 L 650 1247 L 641 1240 L 642 1238 L 640 1237 L 624 1237 L 620 1241 Z M 625 1243 L 636 1243 L 644 1248 L 648 1254 L 645 1267 L 637 1274 L 636 1277 L 623 1276 L 613 1263 L 613 1257 L 616 1251 Z M 1681 1147 L 1679 1147 L 1679 1152 L 1676 1154 L 1680 1153 Z M 796 1147 L 798 1151 L 796 1154 L 799 1153 L 800 1150 Z M 1502 1079 L 1530 1079 Z M 1273 1080 L 1327 1080 L 1326 1078 L 1282 1078 Z M 575 1067 L 581 1081 L 583 1081 L 581 1075 Z M 1361 1056 L 1361 1088 Z M 559 1032 L 556 1037 L 559 1035 L 563 1042 Z M 1587 1022 L 1586 1032 Z M 831 1017 L 836 1018 L 847 1026 L 833 1016 Z M 262 1016 L 263 1018 L 267 1019 L 271 1016 L 268 1018 Z M 1472 1055 L 1471 1017 L 1473 1015 L 1537 1015 L 1471 1015 Z M 1272 1015 L 1330 1015 Z M 789 1016 L 820 1015 L 792 1014 Z M 444 1006 L 450 1008 L 459 1007 Z M 302 1008 L 311 1006 L 304 1006 Z M 1220 1002 L 1224 1013 L 1223 1135 L 1225 1134 L 1225 1009 Z M 1187 1000 L 1181 1008 Z M 938 1000 L 936 1000 L 933 1004 L 933 1009 L 934 1004 Z M 860 1017 L 859 998 L 858 1013 Z M 1621 995 L 1621 999 L 1625 1003 L 1625 1127 L 1623 1138 L 1617 1144 L 1616 1142 L 1613 1144 L 1612 1150 L 1613 1145 L 1616 1143 L 1620 1147 L 1630 1144 L 1672 1145 L 1663 1133 L 1661 1121 L 1661 1009 L 1665 1005 L 1724 1007 L 1737 1011 L 1747 1018 L 1744 1022 L 1749 1032 L 1749 1043 L 1744 1053 L 1738 1059 L 1718 1067 L 1680 1068 L 1679 1066 L 1671 1068 L 1669 1056 L 1670 1071 L 1672 1072 L 1674 1070 L 1685 1074 L 1746 1145 L 1756 1143 L 1788 1143 L 1799 1147 L 1735 1079 L 1737 1077 L 1745 1077 L 1761 1071 L 1776 1061 L 1780 1056 L 1786 1040 L 1785 1017 L 1775 1004 L 1764 998 L 1751 996 Z M 1615 994 L 1613 998 L 1619 1005 L 1620 1011 L 1621 1006 L 1613 998 Z M 1416 994 L 1416 997 L 1420 997 L 1427 1003 L 1428 1006 L 1428 1132 L 1420 1148 L 1434 1144 L 1576 1145 L 1583 1121 L 1582 1119 L 1585 1109 L 1583 1107 L 1584 1108 L 1582 1109 L 1581 1107 L 1581 1111 L 1572 1119 L 1553 1129 L 1542 1131 L 1464 1130 L 1464 1070 L 1532 1071 L 1539 1073 L 1552 1081 L 1552 1056 L 1558 1048 L 1552 1048 L 1549 1050 L 1554 1050 L 1544 1056 L 1530 1056 L 1535 1058 L 1504 1060 L 1472 1059 L 1465 1061 L 1463 1059 L 1463 1008 L 1465 1006 L 1555 1008 L 1580 1021 L 1577 995 Z M 1382 996 L 1377 992 L 1375 992 L 1376 994 L 1374 995 L 1373 993 L 1216 994 L 1218 1000 L 1220 997 L 1224 999 L 1228 1005 L 1228 1136 L 1220 1144 L 1220 1148 L 1242 1144 L 1376 1145 L 1379 1131 L 1388 1111 L 1392 1109 L 1391 1106 L 1386 1105 L 1388 1108 L 1378 1116 L 1377 1114 L 1379 1111 L 1375 1115 L 1377 1117 L 1362 1126 L 1343 1131 L 1266 1130 L 1266 1071 L 1335 1071 L 1349 1077 L 1354 1082 L 1354 1057 L 1360 1051 L 1359 1047 L 1355 1047 L 1351 1050 L 1355 1050 L 1352 1053 L 1349 1051 L 1346 1053 L 1349 1054 L 1344 1055 L 1344 1053 L 1342 1054 L 1343 1056 L 1337 1057 L 1336 1055 L 1327 1057 L 1335 1058 L 1266 1060 L 1266 1006 L 1346 1007 L 1358 1011 L 1379 1024 L 1377 1017 L 1376 995 L 1380 994 L 1382 998 Z M 872 996 L 875 1001 L 873 999 L 876 998 L 882 1001 L 890 1011 L 943 1138 L 949 1146 L 967 1145 L 972 1143 L 972 1140 L 1000 1082 L 1020 1031 L 1057 1114 L 1068 1144 L 1071 1146 L 1080 1146 L 1099 1143 L 1166 1008 L 1176 998 L 1183 995 L 1188 997 L 1184 993 L 1131 995 L 1140 1004 L 1139 1015 L 1136 1020 L 1134 1017 L 1133 1019 L 1135 1024 L 1129 1034 L 1123 1050 L 1121 1051 L 1119 1059 L 1116 1064 L 1114 1061 L 1113 1063 L 1116 1065 L 1106 1086 L 1104 1083 L 1103 1085 L 1106 1087 L 1095 1108 L 1088 1098 L 1050 1015 L 1050 1003 L 1057 993 L 1061 997 L 1060 994 L 1006 992 L 1001 994 L 1001 998 L 1004 997 L 1009 1003 L 1012 1012 L 1010 1014 L 1009 1010 L 1007 1010 L 1009 1012 L 1009 1017 L 1006 1021 L 1008 1022 L 1007 1027 L 996 1050 L 994 1047 L 993 1049 L 996 1050 L 994 1054 L 993 1052 L 991 1053 L 993 1058 L 990 1062 L 989 1060 L 987 1061 L 989 1066 L 984 1076 L 982 1073 L 981 1075 L 984 1077 L 974 1098 L 969 1095 L 970 1098 L 972 1097 L 972 1102 L 970 1105 L 967 1102 L 952 1071 L 926 1009 L 929 999 L 935 995 L 938 995 L 936 993 L 928 992 L 875 993 Z M 465 1147 L 466 1154 L 468 1148 L 475 1145 L 506 1144 L 512 1147 L 511 1143 L 506 1138 L 506 1131 L 520 1098 L 525 1093 L 594 1093 L 613 1126 L 620 1145 L 661 1144 L 669 1146 L 669 1144 L 662 1138 L 599 1032 L 591 1021 L 583 1006 L 582 999 L 584 999 L 582 997 L 581 1000 L 579 997 L 581 995 L 576 992 L 561 992 L 548 994 L 535 1019 L 538 1020 L 536 1024 L 535 1022 L 534 1023 L 535 1026 L 534 1028 L 532 1027 L 534 1028 L 532 1032 L 530 1031 L 532 1033 L 529 1037 L 527 1045 L 515 1067 L 512 1067 L 513 1071 L 508 1080 L 507 1078 L 505 1079 L 507 1084 L 481 1134 L 474 1141 L 471 1140 L 478 1133 L 473 1137 Z M 558 1019 L 589 1082 L 526 1083 L 530 1077 L 554 1020 Z M 681 992 L 677 1006 L 677 1027 L 681 1030 L 683 1030 L 679 1027 L 683 1025 L 683 1021 L 686 1017 L 698 1008 L 709 1006 L 745 1007 L 744 1135 L 742 1137 L 740 1107 L 740 1023 L 740 1135 L 737 1139 L 738 1142 L 731 1148 L 732 1152 L 734 1154 L 732 1151 L 734 1145 L 736 1148 L 759 1144 L 789 1145 L 783 1138 L 781 1132 L 781 1008 L 783 1006 L 817 1006 L 833 1008 L 846 1013 L 852 1021 L 852 998 L 855 995 L 858 996 L 858 994 L 854 991 L 842 993 Z M 274 963 L 270 966 L 267 972 L 263 989 L 261 991 L 259 1010 L 261 1013 L 261 1010 L 265 1005 L 281 999 L 322 996 L 351 997 L 351 1200 L 388 1249 L 393 1258 L 395 1256 L 394 998 L 396 996 L 467 997 L 474 999 L 486 1010 L 484 1006 L 492 981 L 499 969 L 500 963 L 275 965 Z M 134 935 L 160 935 Z M 183 934 L 195 933 L 187 932 Z M 277 928 L 297 926 L 283 926 Z M 315 926 L 330 925 L 318 924 Z M 350 924 L 362 923 L 352 922 Z M 454 918 L 472 917 L 459 916 Z M 1588 915 L 1645 915 Z M 489 916 L 512 915 L 494 914 Z M 1287 913 L 1372 913 Z M 543 913 L 556 914 L 562 912 Z M 1016 911 L 1163 912 L 1138 910 Z M 956 910 L 975 910 Z M 599 911 L 625 912 L 656 910 Z M 1201 912 L 1198 896 L 1197 909 Z M 398 884 L 403 885 L 400 887 L 403 886 L 402 884 L 407 882 L 401 882 Z M 1625 880 L 1647 883 L 1634 880 Z M 1543 879 L 1543 895 Z M 432 878 L 441 876 L 435 876 Z M 1559 874 L 1560 906 L 1567 903 L 1708 905 L 1726 907 L 1740 906 L 1727 905 L 1733 903 L 1788 908 L 1838 908 L 1725 897 L 1670 889 L 1658 889 L 1610 881 L 1601 881 L 1562 873 Z M 464 872 L 458 872 L 447 876 L 462 874 Z M 489 868 L 485 868 L 483 870 L 471 870 L 469 872 L 487 870 Z M 1502 866 L 1503 868 L 1519 869 L 1524 871 L 1536 870 Z M 494 868 L 499 868 L 502 866 L 497 866 Z M 1484 865 L 1497 866 L 1494 864 Z M 1482 864 L 1479 862 L 1469 864 Z M 544 860 L 550 858 L 544 858 Z M 570 856 L 575 856 L 577 854 L 572 854 Z M 597 852 L 606 850 L 599 850 Z M 637 846 L 624 846 L 610 850 L 632 848 Z M 639 846 L 650 844 L 641 844 Z M 1300 843 L 1301 845 L 1308 844 Z M 1281 848 L 1284 845 L 1286 904 L 1293 901 L 1534 903 L 1534 880 L 1536 875 L 1531 873 L 1480 869 L 1442 863 L 1429 863 L 1423 861 L 1395 859 L 1390 857 L 1379 857 L 1375 855 L 1362 855 L 1358 853 L 1292 847 L 1287 843 L 1282 844 Z M 1555 843 L 1559 848 L 1559 863 L 1561 867 L 1571 866 L 1614 873 L 1629 873 L 1673 879 L 1689 879 L 1737 887 L 1763 889 L 1832 902 L 1846 902 L 1822 895 L 1725 879 L 1635 859 L 1608 855 L 1558 843 L 1557 841 Z M 1538 838 L 1541 839 L 1543 843 L 1543 869 L 1544 843 L 1542 839 Z M 715 836 L 725 834 L 717 834 Z M 738 834 L 744 832 L 738 832 Z M 751 832 L 762 830 L 752 830 Z M 987 825 L 972 827 L 985 827 Z M 817 824 L 805 824 L 787 828 Z M 1016 823 L 1005 825 L 1014 825 Z M 825 824 L 836 822 L 827 822 Z M 843 822 L 860 820 L 845 820 Z M 866 820 L 874 818 L 868 818 Z M 886 818 L 893 818 L 896 816 L 888 816 Z M 943 812 L 905 814 L 901 816 L 937 814 Z M 974 810 L 980 810 L 983 808 L 976 808 Z M 993 808 L 1001 808 L 1006 806 L 995 806 Z M 1017 806 L 1027 805 L 1019 804 Z M 1040 804 L 1047 804 L 1051 802 L 1042 802 Z M 1062 802 L 1071 800 L 1064 800 Z M 1083 800 L 1101 798 L 1109 800 L 1109 798 L 1089 798 Z M 1281 771 L 1285 772 L 1286 775 L 1286 830 L 1292 826 L 1308 827 L 1446 849 L 1450 851 L 1459 851 L 1502 859 L 1530 862 L 1534 864 L 1536 862 L 1535 846 L 1540 842 L 1535 839 L 1498 831 L 1446 815 L 1440 815 L 1431 811 L 1356 791 L 1329 781 L 1312 777 L 1306 774 L 1307 772 L 1299 772 L 1301 770 L 1291 770 L 1294 768 L 1287 768 L 1288 767 L 1286 765 L 1282 766 Z M 1197 721 L 1203 728 L 1205 905 L 1210 901 L 1259 901 L 1259 752 L 1262 746 L 1259 743 L 1255 743 L 1239 736 L 1242 734 L 1240 733 L 1239 735 L 1235 735 L 1205 723 L 1204 721 Z M 1182 912 L 1184 910 L 1183 704 Z M 1182 687 L 1179 683 L 1175 683 L 1169 687 L 1164 685 L 1162 687 L 1126 693 L 1123 695 L 1115 695 L 1092 701 L 1085 701 L 1073 705 L 1064 705 L 1061 707 L 1043 709 L 1030 713 L 1011 715 L 1008 717 L 991 719 L 960 727 L 952 727 L 941 731 L 914 735 L 912 737 L 903 737 L 882 743 L 873 743 L 861 747 L 835 751 L 833 753 L 825 753 L 822 755 L 796 759 L 784 763 L 776 763 L 773 765 L 756 767 L 754 769 L 746 769 L 734 773 L 727 773 L 696 781 L 689 781 L 687 783 L 680 783 L 678 785 L 653 789 L 634 795 L 617 797 L 614 799 L 590 803 L 579 807 L 572 807 L 570 809 L 564 809 L 553 813 L 537 815 L 535 817 L 521 819 L 518 821 L 502 823 L 493 827 L 477 829 L 472 833 L 469 831 L 467 834 L 463 835 L 462 833 L 456 837 L 455 835 L 449 839 L 446 839 L 446 837 L 434 841 L 434 843 L 430 843 L 429 841 L 426 843 L 421 843 L 416 847 L 415 845 L 412 845 L 410 848 L 398 851 L 397 849 L 394 853 L 391 853 L 390 851 L 387 854 L 383 855 L 382 853 L 376 857 L 375 855 L 372 858 L 358 860 L 358 862 L 350 862 L 349 865 L 344 865 L 343 863 L 343 866 L 336 867 L 336 865 L 334 867 L 335 868 L 329 868 L 327 871 L 322 870 L 320 873 L 316 873 L 315 871 L 313 872 L 314 874 L 306 874 L 305 877 L 300 877 L 298 879 L 291 878 L 292 880 L 283 880 L 284 882 L 276 882 L 277 884 L 268 884 L 268 887 L 261 889 L 253 888 L 255 890 L 248 893 L 243 893 L 207 905 L 173 913 L 151 921 L 145 921 L 144 923 L 135 923 L 127 927 L 127 930 L 158 924 L 214 908 L 278 893 L 307 889 L 392 872 L 596 840 L 773 818 L 1109 787 L 1115 788 L 1114 819 L 1112 821 L 1108 817 L 1110 814 L 1109 810 L 1109 816 L 1104 818 L 1108 820 L 1091 821 L 1085 823 L 1059 823 L 1050 825 L 1027 825 L 1019 827 L 997 827 L 989 829 L 933 831 L 923 833 L 900 833 L 899 831 L 892 831 L 885 833 L 897 834 L 871 835 L 870 833 L 862 835 L 868 836 L 847 837 L 846 835 L 843 837 L 845 838 L 825 839 L 824 837 L 813 839 L 824 840 L 801 842 L 799 839 L 786 841 L 800 842 L 782 844 L 778 841 L 769 841 L 767 843 L 773 844 L 757 845 L 752 847 L 736 847 L 735 845 L 728 845 L 724 847 L 728 848 L 714 849 L 714 847 L 706 849 L 712 850 L 695 851 L 694 849 L 688 849 L 685 851 L 691 852 L 674 853 L 673 851 L 666 853 L 671 854 L 658 856 L 655 855 L 655 853 L 650 853 L 644 855 L 654 856 L 623 856 L 621 857 L 634 858 L 619 860 L 615 859 L 614 857 L 609 857 L 605 859 L 613 860 L 600 862 L 598 859 L 585 861 L 598 862 L 583 863 L 580 865 L 571 866 L 566 865 L 566 863 L 559 865 L 567 866 L 550 867 L 549 865 L 542 866 L 547 868 L 535 870 L 530 869 L 530 867 L 524 869 L 531 870 L 516 873 L 502 873 L 499 871 L 493 872 L 501 874 L 491 876 L 484 875 L 484 873 L 478 875 L 485 876 L 472 879 L 448 881 L 444 883 L 433 884 L 430 883 L 430 881 L 427 882 L 431 884 L 394 891 L 378 890 L 381 892 L 369 893 L 367 890 L 370 889 L 365 888 L 363 890 L 354 891 L 352 895 L 360 890 L 367 891 L 368 895 L 345 897 L 301 906 L 297 904 L 299 902 L 305 903 L 308 900 L 315 900 L 313 898 L 309 898 L 299 902 L 278 904 L 253 910 L 269 909 L 272 907 L 285 905 L 297 906 L 284 909 L 221 917 L 200 921 L 198 923 L 209 924 L 256 918 L 365 910 L 578 900 L 673 898 L 1176 899 L 1175 697 L 1179 686 Z" fill="#e5a57f"/>
  </g>
</svg>